<svg xmlns="http://www.w3.org/2000/svg" width="115" height="34" viewBox="0 0 115 34" fill="none">
  <path d="M19.9053 0.00292969L15.0319 22.881C14.6872 24.6532 13.9969 25.7354 12.0752 25.7354C10.5964 25.7354 9.75849 24.7999 9.75849 23.2747C9.75849 21.9956 10.3993 19.7803 10.5964 18.5012H0.886665C0.344774 20.4695 0 23.2252 0 24.8987C0 29.3279 2.7102 34.1022 11.5813 34.1022C20.4524 34.1022 24.5926 30.1152 26.0706 22.045L30.7491 0.00292969H19.9053Z" fill="#FFFFFF"/>
  <path d="M58.2761 13.7358H90.1296L91.5095 7.72971H86.2345L87.9605 0H78.1991L76.4731 7.72971H69.3207L71.0453 0H61.2838L59.5577 7.72971H55.3179L54.1396 12.8556C51.8782 8.78688 47.0876 7.08907 42.9304 7.08907C42.2424 7.08907 41.5225 7.13699 40.7879 7.23209C34.7326 8.01501 27.5972 12.1965 27.5972 22.6465C27.5972 28.8502 31.2458 33.9208 40.3176 33.9208C51.3607 33.9208 53.2839 27.5704 53.9247 25.8468H53.9173C53.9173 25.8468 53.9189 25.8416 53.9195 25.8402H44.5561C44.0636 26.7256 42.8307 27.6611 40.7118 27.6611C37.6584 27.6611 36.7208 25.4 36.7193 22.6966H54.9598C55.4035 21.1213 55.4522 19.6438 55.4522 18.266C55.4522 16.5343 55.1318 15.031 54.5744 13.7365L58.2761 13.7358ZM42.6336 13.3421C44.3272 13.3421 45.4383 14.0624 45.9684 15.1357C46.2091 15.6239 46.3294 16.1855 46.3294 16.7856C46.3294 17.0311 46.2807 17.3761 46.2312 17.6216H37.5572C37.6495 17.2848 37.7566 16.9648 37.8791 16.6633C38.7407 14.5482 40.3472 13.3421 42.6336 13.3421Z" fill="#FFFFFF"/>
  <path d="M65.8686 24.5176C65.8686 23.6809 66.1152 22.7941 66.3124 21.9581L67.2728 17.3799L57.3165 18.1732L56.0082 24.2228C55.7625 25.4038 55.4663 26.3393 55.4663 27.7179C55.4663 29.589 56.4527 31.6074 58.1286 32.5429C60.0023 33.5765 62.2208 33.5765 64.2917 33.5765L70.1033 33.567L71.7194 25.8896L67.842 25.897C66.3138 25.897 65.8686 25.3544 65.8686 24.5176Z" fill="#FFFFFF"/>
  <path d="M114.969 15.1641C115.511 8.27184 108.905 7.08936 103.481 7.08936C97.3182 7.08936 90.7617 9.10786 90.7617 16.4438C90.7617 22.0069 95.9878 22.7456 97.7132 23.0405C101.362 23.6812 103.827 23.8286 103.827 25.6496C103.827 26.2407 103.482 27.9143 100.869 27.9143C99.7841 27.9143 98.8967 27.7174 98.3053 27.2735C97.9178 26.919 97.6593 26.456 97.5257 25.8899H88.6339V25.8883L84.7566 25.8957C83.2282 25.8957 82.7839 25.3538 82.7839 24.5172C82.7839 23.6804 83.0304 22.7936 83.2276 21.9576L84.4753 16.0097L74.5278 16.8022L72.9227 24.223C72.6769 25.4041 72.3801 26.3396 72.3801 27.7181C72.3801 29.5892 73.3664 31.6077 75.0431 32.5432C76.9168 33.5768 79.1353 33.5768 81.2062 33.5768L87.0178 33.5672L88.5136 26.4626C89.2289 32.771 95.4962 33.9218 100.623 33.9218C108.51 33.9218 113.589 30.3286 113.589 24.4205C113.589 19.0543 109.99 17.4789 102.742 16.4941C101.461 16.3465 100.524 15.9522 100.524 14.5744C100.524 13.0482 101.953 12.5064 103.285 12.5064C104.074 12.5064 104.912 12.6539 105.553 13.1463C106.096 13.54 106.342 14.1807 106.243 15.1655H114.97L114.969 15.1641Z" fill="#FFFFFF"/>
</svg>
